REM DIRINDEX 1\2,1\3,1\4,1\5\6,1\5\7,1\8
REM DIRNAME folder01,folder02,folder03,folder04,folder05,folder06,folder07,folder08
TITLE ""
FILE "051 Åy051ÅzUnit3 (0577 clerical_0588 notorious).mp3" MP3
  TRACK 01 AUDIO
    TITLE "0:"
    INDEX 01 00:00:00
  TRACK 02 AUDIO
    TITLE "2:cjc115_1960"
    INDEX 01 00:00:07
  TRACK 03 AUDIO
    TITLE "0:"
    INDEX 01 00:01:21
  TRACK 04 AUDIO
    TITLE "3:cjc115_1961"
    INDEX 01 00:01:32
  TRACK 05 AUDIO
    TITLE "0:"
    INDEX 01 00:02:42
  TRACK 06 AUDIO
    TITLE "4:cjc115_1962"
    INDEX 01 00:02:47
  TRACK 07 AUDIO
    TITLE "0:"
    INDEX 01 00:06:16
  TRACK 08 AUDIO
    TITLE "2:cjc115_1963"
    INDEX 01 00:07:25
  TRACK 09 AUDIO
    TITLE "0:"
    INDEX 01 00:08:42
  TRACK 10 AUDIO
    TITLE "3:cjc115_1964"
    INDEX 01 00:08:52
  TRACK 11 AUDIO
    TITLE "0:"
    INDEX 01 00:10:19
  TRACK 12 AUDIO
    TITLE "4:cjc115_1965"
    INDEX 01 00:10:27
  TRACK 13 AUDIO
    TITLE "0:"
    INDEX 01 00:13:73
  TRACK 14 AUDIO
    TITLE "2:cjc115_1966"
    INDEX 01 00:15:07
  TRACK 15 AUDIO
    TITLE "0:"
    INDEX 01 00:16:32
  TRACK 16 AUDIO
    TITLE "3:cjc115_1967"
    INDEX 01 00:16:40
  TRACK 17 AUDIO
    TITLE "0:"
    INDEX 01 00:19:15
  TRACK 18 AUDIO
    TITLE "4:cjc115_1968"
    INDEX 01 00:19:18
  TRACK 19 AUDIO
    TITLE "0:"
    INDEX 01 00:23:57
  TRACK 20 AUDIO
    TITLE "2:cjc115_1969"
    INDEX 01 00:24:67
  TRACK 21 AUDIO
    TITLE "0:"
    INDEX 01 00:25:68
  TRACK 22 AUDIO
    TITLE "3:cjc115_1970"
    INDEX 01 00:26:03
  TRACK 23 AUDIO
    TITLE "0:"
    INDEX 01 00:28:21
  TRACK 24 AUDIO
    TITLE "4:cjc115_1971"
    INDEX 01 00:28:25
  TRACK 25 AUDIO
    TITLE "0:"
    INDEX 01 00:31:51
  TRACK 26 AUDIO
    TITLE "2:cjc115_1972"
    INDEX 01 00:32:56
  TRACK 27 AUDIO
    TITLE "0:"
    INDEX 01 00:33:73
  TRACK 28 AUDIO
    TITLE "3:cjc115_1973"
    INDEX 01 00:34:06
  TRACK 29 AUDIO
    TITLE "0:"
    INDEX 01 00:36:50
  TRACK 30 AUDIO
    TITLE "4:cjc115_1974"
    INDEX 01 00:36:70
  TRACK 31 AUDIO
    TITLE "0:"
    INDEX 01 00:41:30
  TRACK 32 AUDIO
    TITLE "2:cjc115_1975"
    INDEX 01 00:42:37
  TRACK 33 AUDIO
    TITLE "0:"
    INDEX 01 00:43:46
  TRACK 34 AUDIO
    TITLE "3:cjc115_1976"
    INDEX 01 00:43:54
  TRACK 35 AUDIO
    TITLE "0:"
    INDEX 01 00:46:31
  TRACK 36 AUDIO
    TITLE "4:cjc115_1977"
    INDEX 01 00:46:39
  TRACK 37 AUDIO
    TITLE "0:"
    INDEX 01 00:50:27
  TRACK 38 AUDIO
    TITLE "2:cjc115_1978"
    INDEX 01 00:51:32
  TRACK 39 AUDIO
    TITLE "0:"
    INDEX 01 00:52:63
  TRACK 40 AUDIO
    TITLE "3:cjc115_1979"
    INDEX 01 00:52:69
  TRACK 41 AUDIO
    TITLE "0:"
    INDEX 01 00:55:08
  TRACK 42 AUDIO
    TITLE "4:cjc115_1980"
    INDEX 01 00:55:18
  TRACK 43 AUDIO
    TITLE "0:"
    INDEX 01 01:00:00
  TRACK 44 AUDIO
    TITLE "2:cjc115_1981"
    INDEX 01 01:01:09
  TRACK 45 AUDIO
    TITLE "0:"
    INDEX 01 01:02:20
  TRACK 46 AUDIO
    TITLE "3:cjc115_1982"
    INDEX 01 01:02:30
  TRACK 47 AUDIO
    TITLE "0:"
    INDEX 01 01:04:41
  TRACK 48 AUDIO
    TITLE "4:cjc115_1983"
    INDEX 01 01:04:48
  TRACK 49 AUDIO
    TITLE "0:"
    INDEX 01 01:08:42
  TRACK 50 AUDIO
    TITLE "2:cjc115_1984"
    INDEX 01 01:09:50
  TRACK 51 AUDIO
    TITLE "0:"
    INDEX 01 01:10:69
  TRACK 52 AUDIO
    TITLE "3:cjc115_1985"
    INDEX 01 01:11:03
  TRACK 53 AUDIO
    TITLE "0:"
    INDEX 01 01:13:73
  TRACK 54 AUDIO
    TITLE "4:cjc115_1986"
    INDEX 01 01:14:02
  TRACK 55 AUDIO
    TITLE "0:"
    INDEX 01 01:18:58
  TRACK 56 AUDIO
    TITLE "2:cjc115_1987"
    INDEX 01 01:19:68
  TRACK 57 AUDIO
    TITLE "0:"
    INDEX 01 01:20:71
  TRACK 58 AUDIO
    TITLE "3:cjc115_1988"
    INDEX 01 01:21:04
  TRACK 59 AUDIO
    TITLE "0:"
    INDEX 01 01:22:29
  TRACK 60 AUDIO
    TITLE "4:cjc115_1989"
    INDEX 01 01:22:35
  TRACK 61 AUDIO
    TITLE "0:"
    INDEX 01 01:25:43
  TRACK 62 AUDIO
    TITLE "2:cjc115_1990"
    INDEX 01 01:26:52
  TRACK 63 AUDIO
    TITLE "0:"
    INDEX 01 01:27:69
  TRACK 64 AUDIO
    TITLE "3:cjc115_1991"
    INDEX 01 01:28:02
  TRACK 65 AUDIO
    TITLE "0:"
    INDEX 01 01:30:52
  TRACK 66 AUDIO
    TITLE "4:cjc115_1992"
    INDEX 01 01:30:54
  TRACK 67 AUDIO
    TITLE "0:"
    INDEX 01 01:34:14
  TRACK 68 AUDIO
    TITLE "2:cjc115_1993"
    INDEX 01 01:35:16
  TRACK 69 AUDIO
    TITLE "0:"
    INDEX 01 01:36:54
  TRACK 70 AUDIO
    TITLE "3:cjc115_1994"
    INDEX 01 01:36:58
  TRACK 71 AUDIO
    TITLE "0:"
    INDEX 01 01:39:39
  TRACK 72 AUDIO
    TITLE "4:cjc115_1995"
    INDEX 01 01:39:47
  TRACK 73 AUDIO
    TITLE "0:"
    INDEX 01 01:43:00
